<svg width="22" height="24" viewBox="0 0 22 24" fill="none" xmlns="http://www.w3.org/2000/svg">
<g clip-path="url(#clip0_13_124)">
<path d="M12.8258 23.6392C12.3468 24.1188 11.569 24.1188 11.09 23.6392L0.360206 12.8896C-0.118767 12.4099 -0.118767 11.631 0.360206 11.1513L2.67729 8.83082C3.15626 8.35115 3.93408 8.35115 4.41305 8.83082L15.1429 19.5763C15.6218 20.056 15.6218 20.8349 15.1429 21.3146L12.8258 23.6351V23.6392Z" fill="#3A3E59"/>
<path d="M15.1432 2.68156C15.6222 3.16123 15.6222 3.94019 15.1432 4.41986L4.41342 15.1653C3.93445 15.645 3.15663 15.645 2.67765 15.1653L0.360572 12.8449C-0.1184 12.3652 -0.1184 11.5862 0.360572 11.1066L11.0904 0.361097C11.5694 -0.118575 12.3472 -0.118575 12.8261 0.361097L15.1432 2.68156Z" fill="#3A3E59"/>
<path d="M22 13.6399C22 14.3204 21.4515 14.8698 20.7719 14.8698H3.57799C2.89842 14.8698 2.34985 14.3204 2.34985 13.6399V10.3601C2.34985 9.67949 2.89842 9.13013 3.57799 9.13013H20.7719C21.4515 9.13013 22 9.67949 22 10.3601V13.6399Z" fill="#3A3E59"/>
</g>
<defs>
<clipPath id="clip0_13_124">
<rect width="22" height="24" fill="white"/>
</clipPath>
</defs>
</svg>
