<svg width="22" height="23" viewBox="0 0 22 23" fill="none" xmlns="http://www.w3.org/2000/svg">
<path d="M18.8833 11.3361C18.8833 10.8528 18.8333 10.3833 18.75 9.925L21 7.98611L18.9 4.35L16.0972 5.33056C15.3806 4.72222 14.5556 4.24444 13.6556 3.92222L13.1 1H8.9L8.34444 3.92222C7.44444 4.24444 6.61667 4.72222 5.90278 5.33056L3.1 4.35L1 7.98611L3.25 9.925C3.16667 10.3833 3.11667 10.8528 3.11667 11.3361C3.11667 11.8194 3.16667 12.2889 3.25 12.7472L1 14.6861L3.1 18.3222L5.90278 17.3417C6.61944 17.95 7.44444 18.4278 8.34444 18.75L8.9 21.6722H13.1L13.6556 18.75C14.5556 18.4278 15.3833 17.95 16.0972 17.3417L18.9 18.3222L21 14.6861L18.75 12.7472C18.8333 12.2889 18.8833 11.8194 18.8833 11.3361Z" stroke="white" stroke-linecap="round" stroke-linejoin="round"/>
<path d="M11.003 14.5528C12.7795 14.5528 14.2197 13.1127 14.2197 11.3362C14.2197 9.55966 12.7795 8.11951 11.003 8.11951C9.22648 8.11951 7.78633 9.55966 7.78633 11.3362C7.78633 13.1127 9.22648 14.5528 11.003 14.5528Z" stroke="white" stroke-linecap="round" stroke-linejoin="round"/>
</svg>
