<svg xmlns="http://www.w3.org/2000/svg" style="display: none;">
  <symbol id="icon-search" viewBox="0 0 20 20" fill="currentColor">
    <g clip-path="url(#clip0)">
      <path d="M16.57 8.285C16.57 12.8583 12.8583 16.57 8.285 16.57C3.71168 16.57 0 12.8583 0 8.285C0 3.71168 3.71168 0 8.285 0C12.8583 0 16.57 3.71168 16.57 8.285ZM8.285 2.76167C5.23612 2.76167 2.76167 5.23612 2.76167 8.285C2.76167 11.3339 5.23612 13.8083 8.285 13.8083C11.3339 13.8083 13.8083 11.3339 13.8083 8.285C13.8083 5.23612 11.3339 2.76167 8.285 2.76167Z" />
      <path d="M14.1423 12.1894L12.1895 14.1422L18.0479 20.0006L20.0007 18.0478L14.1423 12.1894Z" />
    </g>
  </symbol>
</svg>