<svg width="22" height="24" viewBox="0 0 22 24" fill="none" xmlns="http://www.w3.org/2000/svg">
<g clip-path="url(#clip0_14_208)">
<path d="M9.17422 0.36078C9.65319 -0.118892 10.431 -0.118892 10.91 0.36078L21.6398 11.1104C22.1188 11.59 22.1188 12.369 21.6398 12.8487L19.3227 15.1691C18.8437 15.6488 18.0659 15.6488 17.5869 15.1691L6.85714 4.42364C6.37816 3.94397 6.37816 3.16502 6.85714 2.68534L9.17422 0.364879V0.36078Z" fill="white"/>
<path d="M6.85689 21.3184C6.37792 20.8387 6.37792 20.0598 6.85689 19.5801L17.5867 8.83464C18.0657 8.35497 18.8435 8.35497 19.3225 8.83464L21.6395 11.1551C22.1185 11.6348 22.1185 12.4137 21.6395 12.8934L10.9097 23.6389C10.4308 24.1185 9.65295 24.1185 9.17398 23.6389L6.85689 21.3184Z" fill="white"/>
<path d="M-2.09808e-05 10.3601C-2.09808e-05 9.67955 0.548546 9.13018 1.22811 9.13018H18.422C19.1016 9.13018 19.6501 9.67955 19.6501 10.3601V13.6399C19.6501 14.3205 19.1016 14.8698 18.422 14.8698H1.22811C0.548546 14.8698 -2.09808e-05 14.3205 -2.09808e-05 13.6399V10.3601Z" fill="white"/>
</g>
<defs>
<clipPath id="clip0_14_208">
<rect width="22" height="24" fill="white" transform="matrix(-1 0 0 -1 22 24)"/>
</clipPath>
</defs>
</svg>
