<svg width="22" height="24" viewBox="0 0 22 24" fill="none" xmlns="http://www.w3.org/2000/svg">
<g clip-path="url(#clip0_14_201)">
<path d="M12.8258 23.6392C12.3468 24.1189 11.569 24.1189 11.09 23.6392L0.360206 12.8896C-0.118767 12.41 -0.118767 11.631 0.360206 11.1513L2.67729 8.83088C3.15626 8.35121 3.93408 8.35121 4.41305 8.83088L15.1429 19.5764C15.6218 20.056 15.6218 20.835 15.1429 21.3147L12.8258 23.6351V23.6392Z" fill="white"/>
<path d="M15.1431 2.68159C15.6221 3.16126 15.6221 3.94022 15.1431 4.41989L4.4133 15.1654C3.93432 15.645 3.15651 15.645 2.67753 15.1654L0.36045 12.8449C-0.118523 12.3652 -0.118523 11.5863 0.36045 11.1066L11.0903 0.361127C11.5692 -0.118545 12.3471 -0.118545 12.826 0.361127L15.1431 2.68159Z" fill="white"/>
<path d="M22 13.6399C22 14.3205 21.4515 14.8698 20.7719 14.8698H3.57799C2.89842 14.8698 2.34985 14.3205 2.34985 13.6399V10.3601C2.34985 9.67953 2.89842 9.13016 3.57799 9.13016H20.7719C21.4515 9.13016 22 9.67953 22 10.3601V13.6399Z" fill="white"/>
</g>
<defs>
<clipPath id="clip0_14_201">
<rect width="22" height="24" fill="white"/>
</clipPath>
</defs>
</svg>
